<?xml version="1.0" encoding="utf-8"?>
<!-- Generator: Adobe Illustrator 15.1.0, SVG Export Plug-In . SVG Version: 6.00 Build 0)  -->
<!DOCTYPE svg PUBLIC "-//W3C//DTD SVG 1.1//EN" "http://www.w3.org/Graphics/SVG/1.1/DTD/svg11.dtd">
<svg version="1.1" id="Layer_1" xmlns="http://www.w3.org/2000/svg" xmlns:xlink="http://www.w3.org/1999/xlink" x="0px" y="0px"
	 width="58.146px" height="62.65px" viewBox="0 0 58.146 62.65" enable-background="new 0 0 58.146 62.65" xml:space="preserve">
<g>
	<path fill="#202020" d="M58.145,62.649h-7c0-12.17-9.898-22.07-22.07-22.07c-12.175,0-22.074,9.9-22.074,22.07h-7
		c0-16.028,13.043-29.07,29.075-29.07C45.102,33.578,58.145,46.62,58.145,62.649z"/>
	<path fill="#202020" d="M29.073,31.992c-8.818,0-15.994-7.178-15.994-15.996C13.079,7.176,20.255,0,29.073,0
		c8.816,0,15.992,7.176,15.992,15.996C45.065,24.815,37.891,31.992,29.073,31.992z M29.073,7c-4.959,0-8.994,4.036-8.994,8.996
		s4.035,8.996,8.994,8.996c4.961,0,8.992-4.036,8.992-8.996S34.034,7,29.073,7z"/>
</g>
</svg>
