<?xml version="1.0" encoding="utf-8"?>
<!-- Generator: Adobe Illustrator 15.1.0, SVG Export Plug-In . SVG Version: 6.00 Build 0)  -->
<!DOCTYPE svg PUBLIC "-//W3C//DTD SVG 1.1//EN" "http://www.w3.org/Graphics/SVG/1.1/DTD/svg11.dtd">
<svg version="1.1" id="Layer_1" xmlns="http://www.w3.org/2000/svg" xmlns:xlink="http://www.w3.org/1999/xlink" x="0px" y="0px"
	 width="61.811px" height="61.532px" viewBox="0 0 61.811 61.532" enable-background="new 0 0 61.811 61.532" xml:space="preserve">
<path fill="#202020" d="M61.812,56.581L46.761,41.534c3.258-4.34,5.188-9.729,5.188-15.561c0-14.32-11.65-25.975-25.976-25.975
	c-14.321,0-25.974,11.652-25.974,25.975s11.651,25.975,25.974,25.975c5.975,0,11.478-2.031,15.868-5.433l15.02,15.019L61.812,56.581
	z M25.976,44.948C15.512,44.948,7,36.436,7,25.974S15.512,7,25.976,7c10.462,0,18.974,8.512,18.974,18.974
	S36.438,44.948,25.976,44.948z"/>
</svg>
