<?xml version="1.0" encoding="utf-8"?>
<!-- Generator: Adobe Illustrator 15.1.0, SVG Export Plug-In . SVG Version: 6.00 Build 0)  -->
<!DOCTYPE svg PUBLIC "-//W3C//DTD SVG 1.1//EN" "http://www.w3.org/Graphics/SVG/1.1/DTD/svg11.dtd">
<svg version="1.1" id="Layer_1" xmlns="http://www.w3.org/2000/svg" xmlns:xlink="http://www.w3.org/1999/xlink" x="0px" y="0px"
	 width="61.811px" height="61.532px" viewBox="261.306 161.343 61.811 61.532"
	 enable-background="new 261.306 161.343 61.811 61.532" xml:space="preserve">
<path fill="#FFFFFF" d="M323.117,217.923l-15.051-15.048c3.258-4.34,5.188-9.728,5.188-15.559c0-14.321-11.65-25.973-25.974-25.973
	c-14.323,0-25.974,11.651-25.974,25.973c0,14.322,11.651,25.973,25.974,25.973c5.973,0,11.476-2.031,15.869-5.431l15.018,15.017
	L323.117,217.923z M287.281,206.29c-10.462,0-18.974-8.512-18.974-18.974s8.512-18.973,18.974-18.973
	c10.462,0,18.974,8.511,18.974,18.973S297.743,206.29,287.281,206.29z"/>
</svg>
